<svg xmlns="http://www.w3.org/2000/svg" xmlns:xlink="http://www.w3.org/1999/xlink" width="224" height="224" viewBox="0 0 224 224"><defs><clipPath id="b"><rect width="224" height="224"/></clipPath></defs><g id="a" clip-path="url(#b)"><path d="M223,247h-4v-4h4a16,16,0,0,0,16-16v-8h4v8a19.985,19.985,0,0,1-20,20ZM51,247H39a19.983,19.983,0,0,1-20-20v-8.2a22.281,22.281,0,0,0,3,.2h1v8a16,16,0,0,0,16,16H51v4ZM19,51.2h0V43A19.982,19.982,0,0,1,39,23H51v4H39A16,16,0,0,0,23,43v8H22a22.283,22.283,0,0,0-3,.2ZM243,51h-4V43a16,16,0,0,0-16-16h-4V23h4a19.982,19.982,0,0,1,20,20v8Z" transform="translate(-19 -23)" fill="#fff"/></g></svg>